PathFileType	4	(X/Y/Z)	SUBJ89_2_walk_RCNL2025.trc
DataRate	CameraRate	NumFrames	NumMarkers	Units	OrigDataRate	OrigDataStartFrame	OrigNumFrames
100	100	12	25	mm	100	172	274
Frame#	Time	R_Shoulder			L_Shoulder			C7			J_Notch			R_Elbow			L_Elbow			R_Wrist			L_Wrist			R_Asis			L_Asis			Sacral			Thoracic			Sternum			R_Thigh_Lateral			R_Knee_Lateral			R_Shank_Lateral			R_Ankle_Lateral			R_Heel			R_Toe			L_Thigh_Lateral			L_Knee_Lateral			L_Shank_Lateral			L_Ankle_Lateral			L_Heel			L_Toe		
		X1	Y1	Z1	X2	Y2	Z2	X3	Y3	Z3	X4	Y4	Z4	X5	Y5	Z5	X6	Y6	Z6	X7	Y7	Z7	X8	Y8	Z8	X9	Y9	Z9	X10	Y10	Z10	X11	Y11	Z11	X12	Y12	Z12	X13	Y13	Z13	X14	Y14	Z14	X15	Y15	Z15	X16	Y16	Z16	X17	Y17	Z17	X18	Y18	Z18	X19	Y19	Z19	X20	Y20	Z20	X21	Y21	Z21	X22	Y22	Z22	X23	Y23	Z23	X24	Y24	Z24	X25	Y25	Z25
172	1.71000000	1380.579346	1381.249023	18.126741	1373.799072	1416.103149	-392.231201	1311.353027	1492.880615	-179.315643	1427.276367	1365.268188	-188.253021	1269.567383	1060.150269	42.142483	1373.575439	1072.539673	-440.752899	1337.669434	798.126770	54.057449	1560.945129	880.710114	-410.729782	1409.174438	981.822693	-84.642365	1414.217041	965.226990	-322.208679	1243.219849	1030.762207	-197.860336	1223.218994	1316.916382	-194.401184	1458.685669	1218.217407	-206.477814	1443.700684	604.434204	-28.603270	1472.614380	493.268494	-88.814240	1454.866577	268.700104	-47.456558	1429.113281	64.832512	-123.468788	1389.893188	56.316547	-168.755676	1587.535889	27.920612	-143.383606	1360.286621	536.529602	-418.226074	1343.591675	454.441467	-348.829254	1140.118774	337.271118	-378.797852	991.906860	209.280106	-305.917725	983.905518	238.010651	-251.382172	1044.681274	64.038712	-310.632080
173	1.72000000	1395.524170	1383.975098	18.967295	1386.860718	1418.332886	-391.563049	1325.409912	1495.353760	-178.281265	1441.271851	1367.736206	-187.615051	1286.889648	1062.024414	43.572285	1384.116577	1074.606812	-439.651733	1358.130615	800.829681	54.610355	1568.252686	879.686249	-411.658783	1423.241089	983.477295	-83.922798	1427.845703	968.214111	-321.665741	1257.130127	1033.277344	-196.363251	1237.249878	1319.361206	-192.737671	1472.413818	1220.576172	-205.898315	1450.775269	604.411316	-27.740427	1477.890381	492.792206	-88.026421	1457.208496	268.280457	-46.776012	1429.130493	64.862373	-123.364822	1389.918091	56.532307	-168.532043	1587.467285	27.965748	-143.305649	1382.108887	539.771667	-418.564636	1370.365234	457.704224	-349.349762	1167.507080	340.583893	-377.812866	1020.100586	211.891586	-304.114349	1012.355652	239.473724	-248.968918	1075.567993	68.249741	-313.621307
174	1.73000000	1410.401367	1386.743286	19.761845	1399.649048	1420.580933	-390.960541	1339.331543	1497.778564	-177.272766	1455.160889	1370.185303	-187.044678	1304.202026	1063.964355	45.078800	1394.549072	1076.785156	-438.791992	1378.791870	803.683838	55.104567	1575.204712	878.703979	-412.717911	1437.192749	985.081421	-83.197266	1441.460693	971.205017	-321.080017	1270.992310	1035.768921	-194.911255	1251.184570	1321.725952	-191.010315	1486.064087	1222.940430	-205.380081	1457.768799	604.487122	-26.867405	1482.794434	492.333099	-87.274590	1459.697388	267.900970	-46.148872	1429.158569	64.896523	-123.226379	1389.946899	56.771503	-168.277908	1587.394409	27.999743	-143.221481	1403.932983	543.321533	-418.806244	1396.972412	461.365601	-349.789398	1195.326416	343.162720	-376.878601	1049.394409	212.934464	-302.455994	1041.589844	239.485764	-246.845627	1108.450317	71.391190	-315.948364
175	1.74000000	1425.222046	1389.506836	20.507774	1412.230591	1422.830933	-390.402771	1353.126465	1500.105469	-176.285126	1468.968750	1372.580200	-186.534317	1321.488647	1065.932251	46.658302	1404.846069	1079.045532	-438.147919	1399.639709	806.659332	55.538950	1581.842529	877.743347	-413.923431	1451.016846	986.634583	-82.399567	1455.083618	974.142395	-320.369659	1284.807129	1038.172241	-193.518250	1265.036743	1323.963745	-189.255310	1499.666870	1225.276123	-204.915375	1464.723633	604.617371	-26.048529	1487.439209	491.890808	-86.624893	1462.264038	267.580078	-45.632286	1429.219482	64.951530	-123.097008	1389.996826	57.046902	-168.039078	1587.343872	28.012180	-143.150070	1425.851562	547.055664	-418.941559	1423.345215	465.294556	-350.125397	1223.478882	344.914917	-376.038818	1079.698608	212.393906	-301.023895	1071.529541	238.098755	-245.117630	1143.022339	73.319283	-317.438629
176	1.75000000	1439.998047	1392.213379	21.201683	1424.675903	1425.047241	-389.873962	1366.810669	1502.289551	-175.320374	1482.716064	1374.883057	-186.076294	1338.735962	1067.883179	48.309345	1414.984741	1081.338013	-437.690063	1420.662354	809.720551	55.911459	1588.213013	876.766754	-415.291336	1464.706543	988.115662	-81.490067	1468.714478	976.975281	-319.489807	1298.572998	1040.428589	-192.189178	1278.822021	1326.035034	-187.506042	1513.242554	1227.543457	-204.492157	1471.668579	604.758850	-25.333492	1491.903198	491.460846	-86.111679	1464.765625	267.323242	-45.246063	1429.324097	65.039276	-123.005875	1390.078369	57.361660	-167.847549	1587.329468	28.001879	-143.101547	1447.914062	550.863831	-418.967072	1449.419312	469.368988	-350.329407	1251.920776	345.754669	-375.329712	1110.941162	210.299820	-299.869568	1102.115967	235.373184	-243.845505	1179.047241	73.987595	-318.016113
177	1.76000000	1454.738403	1394.806519	21.840666	1437.056519	1427.179443	-389.362823	1380.404663	1504.291992	-174.385818	1496.417358	1377.053955	-185.661682	1355.934692	1069.768066	50.031464	1424.950806	1083.598389	-437.386108	1441.848328	812.827118	56.218157	1594.360474	875.731476	-416.834610	1478.263184	989.488098	-80.456955	1482.336304	979.656616	-318.434540	1312.289185	1042.489868	-190.924759	1292.556519	1327.908813	-185.790833	1526.803345	1229.698364	-204.093826	1478.640991	604.879028	-24.749588	1496.238037	491.040710	-85.732628	1467.069092	267.124664	-44.976601	1429.476196	65.166809	-122.964996	1390.196899	57.712017	-167.715698	1587.354614	27.972769	-143.077240	1470.140747	554.666809	-418.883484	1475.137085	473.484070	-350.377930	1280.655518	345.614349	-374.776337	1143.071655	206.719971	-299.013794	1133.316406	231.370956	-243.041290	1216.348389	73.439476	-317.705231
178	1.77000000	1469.447876	1397.230591	22.423559	1449.441040	1429.168457	-388.862976	1393.930786	1506.079468	-173.491898	1510.082275	1379.052856	-185.279556	1373.079834	1071.535400	51.823208	1434.741455	1085.756592	-437.202484	1463.184265	815.936005	56.450583	1600.320923	874.599762	-418.562454	1491.697266	990.708618	-79.311249	1495.927124	982.141418	-317.229065	1325.954956	1044.320435	-189.726593	1306.254395	1329.561890	-184.133591	1540.354614	1231.694214	-203.701599	1485.687866	604.959778	-24.296875	1500.480103	490.630676	-85.455345	1469.112671	266.972656	-44.788635	1429.676147	65.336281	-122.972198	1390.356934	58.091747	-167.642044	1587.415283	27.930447	-143.071457	1492.525146	558.417725	-418.692871	1500.450684	477.552704	-350.256012	1309.710571	344.463715	-374.389099	1176.059937	201.753082	-298.449463	1165.123535	226.152191	-242.671158	1254.797119	71.792473	-316.614441
179	1.78000000	1484.126465	1399.434937	22.951441	1461.887207	1430.953125	-388.374176	1407.409790	1507.625610	-172.650055	1523.716919	1380.841187	-184.918625	1390.170654	1073.134399	53.680717	1444.364746	1087.744751	-437.107574	1484.650208	819.004211	56.594946	1606.121460	873.342499	-420.480453	1505.025391	991.736145	-78.078728	1509.473389	984.388123	-315.916229	1339.570068	1045.897461	-188.599762	1319.926392	1330.977295	-182.554443	1553.897949	1233.484863	-203.298447	1492.851807	604.997681	-23.947552	1504.659790	490.230743	-85.231468	1470.922119	266.854828	-44.640621	1429.920776	65.544731	-123.018280	1390.565674	58.495438	-167.623886	1587.502686	27.880362	-143.074005	1515.029419	562.091370	-418.395874	1525.322632	481.502411	-349.954803	1339.110107	342.325714	-374.161530	1209.892700	195.522949	-298.145691	1197.552734	219.775131	-242.663223	1294.300171	69.219902	-314.913879
180	1.79000000	1498.769775	1401.376831	23.426600	1474.436646	1432.475952	-387.902466	1420.860229	1508.911011	-171.869980	1537.326660	1382.384277	-184.570023	1407.208130	1074.519409	55.596531	1453.838501	1089.503418	-437.073578	1506.217346	821.992157	56.637365	1611.781311	871.938782	-422.589615	1518.267212	992.538086	-76.792328	1522.981323	986.360962	-314.541809	1353.135376	1047.209595	-187.552505	1333.580078	1332.142090	-181.069809	1567.433960	1235.028076	-202.872131	1500.153320	604.998718	-23.653292	1508.803833	489.837555	-85.012276	1472.584351	266.760803	-44.496925	1430.204468	65.785141	-123.094475	1390.832642	58.919693	-167.665710	1587.607178	27.826984	-143.073318	1537.583618	565.666992	-417.989044	1549.723511	485.272705	-349.470062	1368.855225	339.277008	-374.069214	1244.567383	188.173035	-298.052979	1230.638184	212.301041	-242.921509	1334.786743	65.931068	-312.811157
181	1.80000000	1513.370117	1403.024048	23.851480	1487.113281	1433.687988	-387.457245	1434.298218	1509.921265	-171.157990	1550.917480	1383.652100	-184.228455	1424.194336	1075.652954	57.558681	1463.189331	1090.986572	-437.076904	1527.851257	824.866180	56.571951	1617.312500	870.374695	-424.882919	1531.440918	993.092712	-75.487091	1536.477295	988.029907	-313.146454	1366.656128	1048.252563	-186.595337	1347.222778	1333.045654	-179.692184	1580.963745	1236.287476	-202.416687	1507.580811	604.968018	-23.360853	1512.933960	489.442871	-84.760468	1474.201660	266.680939	-44.334164	1430.521973	66.049530	-123.197205	1391.162476	59.363747	-167.779068	1587.719971	27.773058	-143.059708	1560.092529	569.114502	-417.463287	1573.626953	488.813019	-348.803162	1398.916016	335.434967	-374.070343	1280.085938	179.861603	-298.110626	1264.429199	203.803116	-243.342468	1376.193481	62.149891	-310.525696
182	1.81000000	1527.918091	1404.354370	24.228533	1499.925659	1434.552246	-387.048370	1447.738647	1510.644775	-170.518066	1564.496094	1384.619995	-183.892181	1441.130371	1076.507568	59.550365	1472.451294	1092.163330	-437.099548	1549.517578	827.600159	56.403137	1622.722412	868.640747	-427.343414	1544.561157	993.388550	-74.196899	1549.992676	989.367493	-311.765991	1380.143433	1049.024414	-185.739105	1360.862671	1333.679321	-178.429977	1594.489014	1237.232910	-201.932388	1515.094727	604.901306	-23.028826	1517.065308	489.034698	-84.455482	1475.851196	266.603302	-44.143829	1430.870850	66.331017	-123.330696	1391.547852	59.830540	-167.979172	1587.836304	27.719183	-143.027908	1582.450439	572.391785	-416.804871	1597.002808	492.079926	-347.961029	1429.234497	330.938965	-374.107941	1316.449707	170.758987	-298.255859	1298.983887	194.375107	-243.827377	1418.451416	58.096806	-308.267578
183	1.82000000	1542.404663	1405.355225	24.560585	1512.870117	1435.046387	-386.684174	1461.195435	1511.072510	-169.953293	1578.070312	1385.268921	-183.563110	1458.015869	1077.066650	61.550648	1481.665527	1093.016968	-437.130554	1571.184204	830.177307	56.141335	1628.017395	866.729797	-429.947266	1557.641235	993.423035	-72.951141	1563.548950	990.346191	-310.433380	1393.612793	1049.521973	-184.991501	1374.506958	1334.037354	-177.287643	1608.012207	1237.840942	-201.424789	1522.640015	604.783081	-22.636227	1521.208740	488.600555	-84.093353	1477.564819	266.514984	-43.932541	1431.249756	66.624252	-123.508102	1391.967651	60.327755	-168.282074	1587.956787	27.664867	-142.978958	1604.555664	575.450439	-415.998077	1619.812622	495.034882	-346.955505	1459.732422	325.932648	-374.116547	1353.653076	161.045670	-298.431976	1334.358765	184.137497	-244.290100	1461.479736	53.978233	-306.220947
